<?xml version="1.0" standalone="no"?>
<!DOCTYPE svg PUBLIC "-//W3C//DTD SVG 20010904//EN"
 "http://www.w3.org/TR/2001/REC-SVG-20010904/DTD/svg10.dtd">
<svg version="1.0" xmlns="http://www.w3.org/2000/svg"
 width="1280.000000pt" height="662.000000pt" viewBox="0 0 1280.000000 662.000000"
 preserveAspectRatio="xMidYMid meet">
<metadata>
Created by potrace 1.15, written by Peter Selinger 2001-2017
</metadata>
<g transform="translate(0.000000,662.000000) scale(0.100000,-0.100000)"
fill="#8bc34a" stroke="none">
<path d="M5610 6509 c-157 -61 -338 -124 -403 -141 -80 -21 -116 -35 -113 -44
2 -7 -5 -14 -16 -17 -27 -7 -18 -31 13 -35 22 -3 24 -7 21 -47 -4 -44 -3 -45
26 -45 17 0 33 -4 36 -9 3 -4 38 -16 78 -25 40 -10 80 -19 88 -22 12 -3 14
-20 12 -94 -2 -49 -6 -90 -8 -90 -13 0 -440 113 -476 126 -37 13 -43 13 -50 0
-5 -8 -255 -139 -556 -292 -766 -388 -795 -403 -782 -420 7 -8 38 -14 78 -16
l67 -3 -3 -150 c-10 -474 -21 -758 -28 -765 -5 -5 -814 -425 -1799 -933
l-1790 -925 -3 -101 -3 -101 229 0 229 0 7 -337 c3 -186 9 -672 12 -1080 l7
-742 21 -3 c13 -2 22 -12 24 -25 3 -19 10 -23 43 -23 36 0 39 2 39 26 l0 27
598 -7 c328 -4 1418 -7 2422 -7 1004 0 1921 -2 2038 -6 194 -5 212 -7 212 -24
0 -26 38 -27 1195 -39 1565 -16 1795 -21 1795 -37 0 -9 14 -13 45 -13 35 0 45
4 45 16 0 15 18 16 198 10 108 -4 353 -7 545 -8 l347 0 0 -24 c0 -23 3 -25 43
-22 36 3 42 6 41 25 -1 26 12 27 361 43 242 11 1316 62 1763 84 156 8 286 16
288 18 2 3 -1 135 -6 294 -5 159 -14 453 -20 654 -6 201 -15 496 -20 655 -6
160 -10 340 -10 400 l0 111 78 -7 c42 -4 107 -10 143 -14 l66 -7 6 82 c5 63 3
87 -8 104 -10 15 -92 56 -247 123 -128 56 -552 239 -943 408 -1479 640 -2018
874 -2021 878 -2 1 -7 134 -11 294 l-8 291 34 6 c22 3 80 -6 158 -26 68 -17
125 -29 127 -27 2 2 6 30 8 62 l3 57 -80 29 c-44 15 -390 155 -770 311 -474
194 -724 291 -798 310 -60 16 -110 30 -112 32 -2 2 -7 92 -11 201 l-7 197 126
0 127 0 0 55 c0 46 -4 57 -23 70 -40 26 -717 345 -733 345 -8 0 -32 9 -52 19
l-37 19 -325 -127 c-271 -105 -325 -130 -325 -146 0 -13 -10 -22 -32 -29 -36
-10 -45 -36 -13 -36 16 0 20 -7 20 -36 l0 -36 64 7 c53 5 71 3 104 -14 l39
-20 6 -93 c3 -51 4 -95 1 -97 -3 -3 -121 24 -262 60 l-257 66 -3 232 -2 231
37 -4 c21 -3 76 -8 123 -11 l86 -6 27 57 c22 45 26 59 15 65 -7 5 -17 9 -22 9
-5 0 -17 6 -25 13 -20 17 -843 397 -856 396 -6 -1 -138 -50 -295 -110z"/>
</g>
</svg>
